<svg version="1.1" id="Layer_1" xmlns="http://www.w3.org/2000/svg" xmlns:xlink="http://www.w3.org/1999/xlink" x="0px" y="0px"
	 width="100%" viewBox="0 0 1135 630" enable-background="new 0 0 1135 630" xml:space="preserve">
<path fill="#A47551" opacity="1.000000" stroke="none" 
	d="
M0.999997,518.000000 
	C1.000000,442.979095 1.000000,367.958221 1.343522,292.328003 
	C2.940174,291.707947 4.262261,291.427826 5.435781,291.728149 
	C17.298561,294.764343 29.014360,298.526886 41.010002,300.857635 
	C60.939060,304.729797 80.970406,308.262329 101.096657,310.874878 
	C117.808083,313.044128 134.700363,314.059082 151.547028,314.855804 
	C161.297653,315.316925 171.134857,314.604553 180.900635,313.942108 
	C197.735611,312.800140 214.686172,312.224335 231.335526,309.726471 
	C263.611176,304.884308 295.260956,296.972412 326.137573,286.334961 
	C341.633148,280.996521 356.966492,275.101959 372.077911,268.755737 
	C389.503357,261.437683 406.759766,253.670197 423.795776,245.486221 
	C438.004639,238.660400 451.836914,231.040726 465.750824,223.613159 
	C487.853668,211.814102 509.937225,199.976852 531.934265,187.982071 
	C558.580872,173.451874 584.792664,158.083313 611.801941,144.269012 
	C648.450500,125.524605 685.032410,106.601654 723.310852,91.180092 
	C758.548584,76.983574 794.165588,63.963779 831.126221,55.150169 
	C853.121643,49.905140 875.408508,45.714565 897.729065,42.054203 
	C914.985962,39.224239 932.487122,37.842667 949.903442,36.046921 
	C956.656067,35.350674 963.470154,35.113018 970.262695,34.967457 
	C988.547180,34.575619 1006.852478,33.723824 1025.116821,34.231461 
	C1042.463013,34.713570 1059.775024,36.598122 1077.087280,38.042969 
	C1084.490967,38.660866 1091.874878,39.599892 1099.236450,40.618847 
	C1111.504272,42.316891 1123.746826,44.196720 1136.000000,46.000004 
	C1136.000000,96.020897 1136.000000,146.041794 1135.758789,196.557068 
	C1135.517456,197.051468 1135.040894,197.143753 1134.666504,197.092957 
	C1130.822876,195.172745 1127.407715,193.193222 1123.874512,191.453476 
	C1110.290527,184.764709 1095.993286,184.258270 1081.192139,185.829193 
	C1060.714233,188.002609 1041.365479,194.141098 1022.316345,201.382126 
	C996.425232,211.224014 971.157593,222.521225 946.975830,236.075256 
	C934.000671,243.347946 921.320679,251.149017 908.536560,258.760468 
	C882.347839,274.352844 855.927002,289.573944 830.060486,305.684570 
	C791.256653,329.853058 753.006531,354.910492 714.207275,379.086487 
	C692.842285,392.399109 671.031555,405.031738 649.063782,417.331543 
	C627.581299,429.359589 604.664734,438.141144 581.050232,445.127808 
	C548.677368,454.705688 515.686829,460.279816 481.903564,461.028229 
	C477.775787,461.119659 473.654266,461.865967 469.533905,461.830811 
	C463.974426,461.783447 458.418945,461.272614 452.813324,460.750610 
	C452.600677,460.268219 452.359497,460.134064 451.571991,460.094177 
	C428.201233,459.368073 405.299469,458.699982 382.398743,457.997009 
	C372.779053,457.701752 363.160278,457.365417 353.544922,456.957214 
	C352.305298,456.904633 351.088898,456.306183 349.813324,455.750610 
	C349.600677,455.268219 349.359497,455.134064 348.571991,455.094177 
	C337.322784,454.700165 326.526764,453.811188 315.767212,454.134766 
	C301.933044,454.550812 288.071350,452.419525 274.208649,455.744385 
	C267.088074,457.452179 259.344757,456.399750 251.921463,457.041504 
	C234.145233,458.578186 216.271942,459.592346 198.660187,462.276428 
	C177.459930,465.507355 156.186768,469.106445 135.490005,474.599152 
	C103.057526,483.206482 70.986526,493.231201 38.959122,503.282379 
	C26.038975,507.337128 13.637506,513.044617 0.999997,518.000000 
z"/>
<path fill="#E4D4C8" opacity="1.000000" stroke="none" 
	d="
M1132.000000,631.000000 
	C755.640808,631.000000 379.281677,631.000000 2.334681,630.796143 
	C1.543483,630.337402 1.294532,630.139954 1.000000,630.000000 
	C1.000000,621.307495 1.000000,612.614990 1.434856,603.461243 
	C18.796202,604.975647 35.575245,607.305115 52.839214,606.306458 
	C70.012772,605.312988 86.902191,603.243713 103.524590,599.233826 
	C132.770462,592.178833 160.518356,580.852600 187.440430,567.646179 
	C207.756531,557.680298 227.710037,546.948669 247.586990,536.121094 
	C270.076965,523.869995 292.295624,511.121063 314.642761,498.607330 
	C333.016022,488.318848 351.731934,479.245911 373.345795,477.792267 
	C390.249634,476.655365 407.058624,475.514862 424.037750,476.952332 
	C445.351501,478.756775 466.724152,480.133789 488.099731,480.845367 
	C502.534943,481.325897 517.024719,480.494446 531.479431,479.960999 
	C543.914551,479.502136 556.474976,479.573761 568.730530,477.741943 
	C590.848938,474.435852 612.998230,470.799408 634.741150,465.641876 
	C669.505371,457.395691 701.745605,442.832062 731.533142,422.983032 
	C751.792297,409.483215 770.199158,393.758362 787.683838,376.864685 
	C816.762390,348.768738 843.602722,318.375946 874.876404,292.525848 
	C902.961182,269.311615 934.276917,252.371445 969.252502,242.116928 
	C999.598633,233.219681 1030.753418,230.134262 1062.169434,229.092834 
	C1070.612427,228.812943 1079.097046,230.018158 1087.555176,229.918396 
	C1100.611328,229.764404 1113.320312,231.670258 1126.065430,234.301987 
	C1131.204956,235.363281 1132.109375,237.320801 1132.104492,242.069580 
	C1131.973877,371.712952 1132.000000,501.356476 1132.000000,631.000000 
z"/>
<path fill="#E4D4C8" opacity="1.000000" stroke="none" 
	d="
M1.000000,233.000000 
	C1.000000,155.693069 1.000000,78.386139 1.000000,1.000000 
	C333.026855,1.000000 665.053711,1.000000 997.288818,1.291197 
	C996.434448,2.029528 995.398743,2.780289 994.304993,2.877299 
	C981.929443,3.974919 969.543945,4.960765 957.163147,6.000023 
	C944.947571,7.025405 932.716614,7.906492 920.524658,9.163493 
	C906.696594,10.589178 892.904785,12.366476 879.096375,13.982892 
	C861.501404,16.042566 843.839478,17.650284 826.324890,20.250294 
	C797.989563,24.456619 769.716980,29.116074 741.479126,33.941948 
	C702.164978,40.660778 663.418762,49.812908 625.417725,62.014626 
	C597.618896,70.940529 570.805054,82.156670 545.758301,97.218422 
	C524.174255,110.197845 505.559906,127.044159 486.741425,143.624222 
	C476.925293,152.272781 466.856812,160.744324 456.201874,168.309250 
	C432.003998,185.489471 404.517517,195.714249 376.018738,202.778503 
	C354.008087,208.234482 331.612000,212.322830 309.219391,215.995834 
	C288.654175,219.369095 267.893646,221.641922 247.164490,223.896729 
	C231.033188,225.651443 214.831543,226.842926 198.636215,227.903717 
	C179.603851,229.150345 160.549927,230.105072 141.495346,230.964462 
	C123.250381,231.787354 104.995590,232.429642 86.739540,232.958664 
	C70.120415,233.440247 53.494453,233.877289 36.870270,233.928009 
	C24.914568,233.964493 12.956830,233.333328 1.000000,233.000000 
z"/>
<path fill="#D0B49F" opacity="1.000000" stroke="none" 
	d="
M1.000000,233.468658 
	C12.956830,233.333328 24.914568,233.964493 36.870270,233.928009 
	C53.494453,233.877289 70.120415,233.440247 86.739540,232.958664 
	C104.995590,232.429642 123.250381,231.787354 141.495346,230.964462 
	C160.549927,230.105072 179.603851,229.150345 198.636215,227.903717 
	C214.831543,226.842926 231.033188,225.651443 247.164490,223.896729 
	C267.893646,221.641922 288.654175,219.369095 309.219391,215.995834 
	C331.612000,212.322830 354.008087,208.234482 376.018738,202.778503 
	C404.517517,195.714249 432.003998,185.489471 456.201874,168.309250 
	C466.856812,160.744324 476.925293,152.272781 486.741425,143.624222 
	C505.559906,127.044159 524.174255,110.197845 545.758301,97.218422 
	C570.805054,82.156670 597.618896,70.940529 625.417725,62.014626 
	C663.418762,49.812908 702.164978,40.660778 741.479126,33.941948 
	C769.716980,29.116074 797.989563,24.456619 826.324890,20.250294 
	C843.839478,17.650284 861.501404,16.042566 879.096375,13.982892 
	C892.904785,12.366476 906.696594,10.589178 920.524658,9.163493 
	C932.716614,7.906492 944.947571,7.025405 957.163147,6.000023 
	C969.543945,4.960765 981.929443,3.974919 994.304993,2.877299 
	C995.398743,2.780289 996.434448,2.029528 997.748535,1.291197 
	C1043.889771,1.000000 1089.779541,1.000000 1136.000000,1.000000 
	C1136.000000,15.685906 1136.000000,30.374294 1136.000000,45.531345 
	C1123.746826,44.196720 1111.504272,42.316891 1099.236450,40.618847 
	C1091.874878,39.599892 1084.490967,38.660866 1077.087280,38.042969 
	C1059.775024,36.598122 1042.463013,34.713570 1025.116821,34.231461 
	C1006.852478,33.723824 988.547180,34.575619 970.262695,34.967457 
	C963.470154,35.113018 956.656067,35.350674 949.903442,36.046921 
	C932.487122,37.842667 914.985962,39.224239 897.729065,42.054203 
	C875.408508,45.714565 853.121643,49.905140 831.126221,55.150169 
	C794.165588,63.963779 758.548584,76.983574 723.310852,91.180092 
	C685.032410,106.601654 648.450500,125.524605 611.801941,144.269012 
	C584.792664,158.083313 558.580872,173.451874 531.934265,187.982071 
	C509.937225,199.976852 487.853668,211.814102 465.750824,223.613159 
	C451.836914,231.040726 438.004639,238.660400 423.795776,245.486221 
	C406.759766,253.670197 389.503357,261.437683 372.077911,268.755737 
	C356.966492,275.101959 341.633148,280.996521 326.137573,286.334961 
	C295.260956,296.972412 263.611176,304.884308 231.335526,309.726471 
	C214.686172,312.224335 197.735611,312.800140 180.900635,313.942108 
	C171.134857,314.604553 161.297653,315.316925 151.547028,314.855804 
	C134.700363,314.059082 117.808083,313.044128 101.096657,310.874878 
	C80.970406,308.262329 60.939060,304.729797 41.010002,300.857635 
	C29.014360,298.526886 17.298561,294.764343 5.435781,291.728149 
	C4.262261,291.427826 2.940174,291.707947 1.343522,291.859314 
	C1.000000,272.645782 1.000000,253.291550 1.000000,233.468658 
z"/>
<path fill="#D0B49F" opacity="1.000000" stroke="none" 
	d="
M349.861725,455.960632 
	C351.088898,456.306183 352.305298,456.904633 353.544922,456.957214 
	C363.160278,457.365417 372.779053,457.701752 382.398743,457.997009 
	C405.299469,458.699982 428.201233,459.368073 451.677551,460.259705 
	C452.420074,460.676910 452.623169,460.840729 452.861725,460.960632 
	C458.418945,461.272614 463.974426,461.783447 469.533905,461.830811 
	C473.654266,461.865967 477.775787,461.119659 481.903564,461.028229 
	C515.686829,460.279816 548.677368,454.705688 581.050232,445.127808 
	C604.664734,438.141144 627.581299,429.359589 649.063782,417.331543 
	C671.031555,405.031738 692.842285,392.399109 714.207275,379.086487 
	C753.006531,354.910492 791.256653,329.853058 830.060486,305.684570 
	C855.927002,289.573944 882.347839,274.352844 908.536560,258.760468 
	C921.320679,251.149017 934.000671,243.347946 946.975830,236.075256 
	C971.157593,222.521225 996.425232,211.224014 1022.316345,201.382126 
	C1041.365479,194.141098 1060.714233,188.002609 1081.192139,185.829193 
	C1095.993286,184.258270 1110.290527,184.764709 1123.874512,191.453476 
	C1127.407715,193.193222 1130.822876,195.172745 1134.792847,197.269440 
	C1135.493042,197.715042 1135.728516,197.882797 1136.000000,198.000000 
	C1136.000000,208.687561 1136.000000,219.375122 1135.739868,230.534088 
	C1135.306274,231.008942 1135.132935,231.012390 1134.541016,231.011032 
	C1124.160400,229.343689 1114.242920,226.685760 1104.226685,226.237778 
	C1086.505005,225.445129 1068.704346,225.486145 1050.972534,226.144165 
	C1036.263794,226.690018 1021.562683,228.261612 1006.935974,230.024414 
	C980.330505,233.230881 955.055298,241.571518 930.703003,252.314072 
	C901.031189,265.403229 875.707581,285.163147 852.314575,307.304871 
	C820.773010,337.159119 792.103088,369.968292 758.684998,397.917786 
	C735.296753,417.478760 709.754822,433.507660 681.786499,445.456329 
	C649.228088,459.365967 615.195190,467.915985 580.002380,472.151703 
	C555.090149,475.150055 530.148376,477.118866 505.063812,476.956116 
	C492.601013,476.875244 480.139496,476.385162 467.680634,475.980499 
	C460.215729,475.738098 452.747345,475.439850 445.298706,474.910828 
	C439.524475,474.500732 433.786682,473.601196 428.017700,473.087372 
	C420.772614,472.442078 413.512543,471.543793 406.258362,471.538483 
	C398.820190,471.533020 391.386200,472.828308 383.941833,472.930115 
	C365.360168,473.184326 347.543121,476.811737 331.139679,485.539520 
	C308.098694,497.799011 285.395233,510.692017 262.522430,523.268616 
	C247.806122,531.360291 233.179199,539.629761 218.267914,547.347534 
	C201.870117,555.834717 185.360229,564.147095 168.581024,571.841919 
	C156.059586,577.584229 143.146957,582.536316 130.202301,587.277283 
	C113.329575,593.457031 95.951828,597.924866 78.060310,599.946838 
	C68.680031,601.006897 59.232101,601.728271 49.798199,601.977905 
	C41.078384,602.208496 32.308010,601.960876 23.613007,601.262695 
	C16.036858,600.654358 8.534797,599.123352 1.000002,598.000000 
	C1.000000,571.645752 1.000000,545.291565 0.999997,518.468628 
	C13.637506,513.044617 26.038975,507.337128 38.959122,503.282379 
	C70.986526,493.231201 103.057526,483.206482 135.490005,474.599152 
	C156.186768,469.106445 177.459930,465.507355 198.660187,462.276428 
	C216.271942,459.592346 234.145233,458.578186 251.921463,457.041504 
	C259.344757,456.399750 267.088074,457.452179 274.208649,455.744385 
	C288.071350,452.419525 301.933044,454.550812 315.767212,454.134766 
	C326.526764,453.811188 337.322784,454.700165 348.677551,455.259674 
	C349.420074,455.676910 349.623169,455.840729 349.861725,455.960632 
z"/>
<path fill="#E4D4C8" opacity="1.000000" stroke="none" 
	d="
M1.000002,598.416626 
	C8.534797,599.123352 16.036858,600.654358 23.613007,601.262695 
	C32.308010,601.960876 41.078384,602.208496 49.798199,601.977905 
	C59.232101,601.728271 68.680031,601.006897 78.060310,599.946838 
	C95.951828,597.924866 113.329575,593.457031 130.202301,587.277283 
	C143.146957,582.536316 156.059586,577.584229 168.581024,571.841919 
	C185.360229,564.147095 201.870117,555.834717 218.267914,547.347534 
	C233.179199,539.629761 247.806122,531.360291 262.522430,523.268616 
	C285.395233,510.692017 308.098694,497.799011 331.139679,485.539520 
	C347.543121,476.811737 365.360168,473.184326 383.941833,472.930115 
	C391.386200,472.828308 398.820190,471.533020 406.258362,471.538483 
	C413.512543,471.543793 420.772614,472.442078 428.017700,473.087372 
	C433.786682,473.601196 439.524475,474.500732 445.298706,474.910828 
	C452.747345,475.439850 460.215729,475.738098 467.680634,475.980499 
	C480.139496,476.385162 492.601013,476.875244 505.063812,476.956116 
	C530.148376,477.118866 555.090149,475.150055 580.002380,472.151703 
	C615.195190,467.915985 649.228088,459.365967 681.786499,445.456329 
	C709.754822,433.507660 735.296753,417.478760 758.684998,397.917786 
	C792.103088,369.968292 820.773010,337.159119 852.314575,307.304871 
	C875.707581,285.163147 901.031189,265.403229 930.703003,252.314072 
	C955.055298,241.571518 980.330505,233.230881 1006.935974,230.024414 
	C1021.562683,228.261612 1036.263794,226.690018 1050.972534,226.144165 
	C1068.704346,225.486145 1086.505005,225.445129 1104.226685,226.237778 
	C1114.242920,226.685760 1124.160400,229.343689 1134.670410,231.219177 
	C1135.415527,231.708878 1135.676025,231.898163 1136.000000,232.000000 
	C1136.000000,363.666656 1136.001099,495.333344 1135.988892,627.000000 
	C1135.988770,629.016968 1137.016357,631.928955 1132.500000,631.000000 
	C1132.000000,501.356476 1131.973877,371.712952 1132.104492,242.069580 
	C1132.109375,237.320801 1131.204956,235.363281 1126.065430,234.301987 
	C1113.320312,231.670258 1100.611328,229.764404 1087.555176,229.918396 
	C1079.097046,230.018158 1070.612427,228.812943 1062.169434,229.092834 
	C1030.753418,230.134262 999.598633,233.219681 969.252502,242.116928 
	C934.276917,252.371445 902.961182,269.311615 874.876404,292.525848 
	C843.602722,318.375946 816.762390,348.768738 787.683838,376.864685 
	C770.199158,393.758362 751.792297,409.483215 731.533142,422.983032 
	C701.745605,442.832062 669.505371,457.395691 634.741150,465.641876 
	C612.998230,470.799408 590.848938,474.435852 568.730530,477.741943 
	C556.474976,479.573761 543.914551,479.502136 531.479431,479.960999 
	C517.024719,480.494446 502.534943,481.325897 488.099731,480.845367 
	C466.724152,480.133789 445.351501,478.756775 424.037750,476.952332 
	C407.058624,475.514862 390.249634,476.655365 373.345795,477.792267 
	C351.731934,479.245911 333.016022,488.318848 314.642761,498.607330 
	C292.295624,511.121063 270.076965,523.869995 247.586990,536.121094 
	C227.710037,546.948669 207.756531,557.680298 187.440430,567.646179 
	C160.518356,580.852600 132.770462,592.178833 103.524590,599.233826 
	C86.902191,603.243713 70.012772,605.312988 52.839214,606.306458 
	C35.575245,607.305115 18.796202,604.975647 1.434856,603.000000 
	C1.000000,601.611084 1.000000,600.222229 1.000002,598.416626 
z"/>
<path fill="#D0B49F" opacity="1.000000" stroke="none" 
	d="
M1136.000000,197.750000 
	C1135.728516,197.882797 1135.493042,197.715042 1135.167236,197.320251 
	C1135.040894,197.143753 1135.517456,197.051468 1135.758789,197.025726 
	C1136.000000,197.000000 1136.000000,197.500000 1136.000000,197.750000 
z"/>
<path fill="#D0B49F" opacity="1.000000" stroke="none" 
	d="
M1136.000000,231.750000 
	C1135.676025,231.898163 1135.415527,231.708878 1135.089111,231.223999 
	C1135.132935,231.012390 1135.306274,231.008942 1135.739868,231.002747 
	C1136.000000,231.000000 1136.000000,231.500000 1136.000000,231.750000 
z"/>
<path fill="#E4D4C8" opacity="1.000000" stroke="none" 
	d="
M1.000000,630.500000 
	C1.294532,630.139954 1.543483,630.337402 1.873427,630.796143 
	C1.666667,631.000000 1.333333,631.000000 1.000000,630.500000 
z"/>
<path fill="#D0B49F" opacity="1.000000" stroke="none" 
	d="
M349.813324,455.750610 
	C349.623169,455.840729 349.420074,455.676910 349.146912,455.303619 
	C349.359497,455.134064 349.600677,455.268219 349.813324,455.750610 
z"/>
<path fill="#D0B49F" opacity="1.000000" stroke="none" 
	d="
M452.813324,460.750610 
	C452.623169,460.840729 452.420074,460.676910 452.146912,460.303619 
	C452.359497,460.134064 452.600677,460.268219 452.813324,460.750610 
z"/>
</svg>