<svg version="1.1" id="Layer_1" xmlns="http://www.w3.org/2000/svg" xmlns:xlink="http://www.w3.org/1999/xlink" x="0px" y="0px"
	 width="100%" viewBox="0 0 1024 1024" enable-background="new 0 0 1024 1024" xml:space="preserve">
<path fill="#e4d4c8" opacity="1.000000" stroke="none" 
	d="
M638.192017,1018.380676 
	C629.416260,1019.986938 621.061768,1021.228821 612.494751,1021.219360 
	C545.495789,1021.145386 478.496490,1021.300293 411.497681,1021.174316 
	C391.199860,1021.136108 372.250580,1016.461060 356.122131,1003.144348 
	C339.947723,989.789734 331.435242,972.196716 328.864899,951.926086 
	C325.560608,925.867493 323.379913,899.667114 320.662476,873.533264 
	C318.648163,854.161133 316.408234,834.811584 314.529358,815.426697 
	C312.715118,796.708984 311.280731,777.954712 309.594452,759.224182 
	C307.939209,740.838501 306.225220,722.457703 304.450043,704.083130 
	C301.937500,678.076355 299.294403,652.082092 296.801361,626.073425 
	C294.419739,601.227417 292.127899,576.372620 289.853882,551.516479 
	C287.792786,528.987854 285.783936,506.454376 283.805450,483.918335 
	C283.167419,476.650848 281.239075,474.724457 273.961548,474.128082 
	C267.821350,473.624908 261.662842,473.168304 255.571503,472.284149 
	C243.860489,470.584229 237.747910,461.860260 239.283417,450.244720 
	C242.014374,429.585968 245.366272,409.071533 251.786987,389.181885 
	C252.548660,386.822418 253.526352,384.480621 254.761841,382.336945 
	C257.333069,377.875824 260.861847,375.644043 266.515503,375.650574 
	C390.680328,375.794250 514.845337,375.750275 639.010315,375.737793 
	C679.990906,375.733673 720.971741,375.778870 761.951782,375.622437 
	C766.643921,375.604523 769.870483,377.299072 772.567505,380.874847 
	C776.706665,386.362457 778.425110,392.795929 779.918579,399.293945 
	C783.535217,415.029602 787.089478,430.780243 790.550659,446.550812 
	C794.388733,464.038483 786.437256,473.993164 768.526855,474.348358 
	C763.536194,474.447327 758.548096,474.144012 753.553589,474.806763 
	C748.184814,475.519135 745.200195,478.389893 744.169189,483.625610 
	C742.360840,492.808746 742.336609,502.165436 741.373779,511.430328 
	C739.327881,531.117065 737.469116,550.823242 735.553833,570.523438 
	C732.736084,599.506653 729.842590,628.482849 727.155579,657.478210 
	C724.607239,684.976929 722.585266,712.518555 719.574890,739.981873 
	C716.421082,768.754639 714.010864,797.609131 711.308777,826.431091 
	C708.682861,854.440063 705.907898,882.436951 703.570251,910.470154 
	C702.213623,926.738647 700.486938,942.929565 697.396240,958.962830 
	C691.748840,988.259155 668.127380,1012.108948 638.192017,1018.380676 
M659.542297,975.042725 
	C663.935669,970.138123 667.201050,964.572083 669.262024,958.317810 
	C675.013672,940.864136 674.441711,922.526550 676.526062,904.579468 
	C678.983215,883.422180 680.401733,862.145874 682.408081,840.934082 
	C684.428406,819.574524 686.706848,798.239258 688.703613,776.877625 
	C690.251343,760.318848 691.323792,743.713989 692.991943,727.168396 
	C695.713562,700.173096 698.811035,673.215942 701.617310,646.228821 
	C702.602051,636.759094 699.412048,634.127014 690.469666,636.900208 
	C658.938293,646.679077 626.852173,650.451416 593.845642,647.503845 
	C565.401550,644.963745 538.155823,637.599854 511.330383,628.525635 
	C479.424835,617.733032 447.342712,608.179504 413.692871,604.217834 
	C386.684021,601.037964 360.244629,602.574524 334.058838,609.657898 
	C324.317566,612.292908 322.389526,615.432861 323.477875,625.531250 
	C325.849884,647.539612 328.115265,669.560486 330.254456,691.592651 
	C332.455200,714.258911 334.434601,736.946594 336.546539,759.621521 
	C339.091797,786.949219 341.627869,814.277893 344.257172,841.597534 
	C346.121796,860.971619 348.055054,880.339966 350.106049,899.695068 
	C351.718445,914.911255 354.068237,930.065979 355.183319,945.314392 
	C357.129639,971.929321 378.523163,992.737183 405.143402,992.773010 
	C476.120544,992.868591 547.097900,992.795410 618.075012,992.908569 
	C634.294128,992.934387 648.049255,987.600159 659.542297,975.042725 
M333.500671,474.315826 
	C328.168549,474.328064 322.834442,474.252930 317.504883,474.376160 
	C311.716614,474.509979 310.137177,476.134186 310.292755,482.017761 
	C310.398102,486.000641 310.861359,489.977661 311.250458,493.948883 
	C313.876801,520.755615 316.484955,547.564209 319.191406,574.362854 
	C320.080994,583.171143 322.311798,584.541138 330.997589,581.990540 
	C346.111267,577.552429 361.622070,575.422058 377.285370,574.927429 
	C405.062134,574.050476 432.375793,577.780212 459.369171,584.225586 
	C486.937744,590.808289 513.413147,600.904053 540.444641,609.209961 
	C566.190491,617.120728 592.354797,622.446533 619.448242,621.575806 
	C627.413147,621.319763 635.376221,620.522095 643.302124,619.633057 
	C662.259033,617.506653 680.523804,612.454102 698.422913,606.013489 
	C703.002686,604.365540 706.019958,601.014587 706.581970,596.133911 
	C707.476257,588.368713 708.199341,580.571655 708.631409,572.767944 
	C709.533264,556.477173 711.773132,540.322266 713.270325,524.093384 
	C714.569458,510.011902 715.989563,495.938446 717.022766,481.836975 
	C717.475830,475.653137 715.999084,474.471283 709.923157,474.342102 
	C708.757202,474.317322 707.590393,474.335266 706.423950,474.335205 
	C582.449463,474.329193 458.474915,474.323334 333.500671,474.315826 
M479.500000,447.888153 
	C543.831299,447.896393 608.162537,447.907654 672.493835,447.911438 
	C699.992737,447.913055 727.491577,447.917389 754.990479,447.879364 
	C761.852295,447.869873 763.124756,446.531464 761.647095,439.831451 
	C759.282898,429.111725 756.507507,418.482910 753.931396,407.809509 
	C752.489624,401.835999 748.672852,398.751099 742.598511,398.399597 
	C740.437805,398.274567 738.270996,398.198547 736.106934,398.197662 
	C634.277405,398.156342 532.447815,398.135345 430.618286,398.089661 
	C383.620300,398.068604 336.622314,398.002045 289.624329,397.955292 
	C279.891357,397.945618 276.156616,400.094269 274.591553,407.605377 
	C272.522186,417.536896 270.683411,427.532257 269.217041,437.569061 
	C267.843140,446.972778 268.893799,447.890808 278.507477,447.891327 
	C345.171661,447.894714 411.835815,447.890350 479.500000,447.888153 
z"/>
<path fill="#e4d4c8" opacity="1.000000" stroke="none" 
	d="
M717.199036,92.067856 
	C709.219238,114.912254 701.413025,137.403503 693.434631,159.833496 
	C686.630798,178.961243 679.747070,198.062317 672.689087,217.097458 
	C660.058044,251.162872 615.032776,268.458923 583.439270,238.370056 
	C567.002930,222.716492 562.513184,202.170441 570.052856,180.807938 
	C587.118591,132.454758 603.578064,83.897247 620.308411,35.431271 
	C624.583618,23.046528 632.394653,14.569504 645.826721,12.090436 
	C652.596375,10.841004 658.730347,13.115270 664.823608,15.199790 
	C678.056641,19.726818 691.258118,24.366798 704.115540,29.916668 
	C726.806946,39.711288 731.680237,50.815289 723.490356,74.297226 
	C721.463928,80.107361 719.364014,85.891853 717.199036,92.067856 
M630.467224,80.935516 
	C627.726990,88.783485 624.982239,96.629860 622.247314,104.479668 
	C612.123901,133.536194 602.062073,162.614334 591.858826,191.642776 
	C586.509583,206.861328 595.013672,224.987793 610.440491,230.781433 
	C625.021973,236.257614 644.218872,227.619049 649.672485,212.907333 
	C654.066772,201.053467 658.203430,189.102768 662.352844,177.159729 
	C674.365051,142.585449 686.363770,108.006325 698.281738,73.399475 
	C701.398438,64.349419 697.694275,56.749683 688.706299,53.512512 
	C679.939026,50.354847 670.783020,48.083492 662.368530,44.189396 
	C652.413452,39.582352 642.472839,44.703369 639.244873,55.148571 
	C636.642334,63.569489 633.584106,71.849579 630.467224,80.935516 
z"/>
<path fill="#e4d4c8" opacity="1.000000" stroke="none" 
	d="
M585.207764,262.693604 
	C604.763794,265.442474 620.552490,273.545715 628.353699,292.125885 
	C636.185425,310.778564 635.334534,329.455322 621.716064,345.185059 
	C605.589722,363.811615 588.203247,367.469116 563.304688,360.341095 
	C543.095032,354.555450 534.683838,338.713531 531.334900,319.525085 
	C528.271545,301.973694 534.345032,287.369659 547.248291,275.523712 
	C557.821350,265.816956 570.245789,261.062927 585.207764,262.693604 
M567.424316,331.130554 
	C568.387817,331.783203 569.303711,332.523804 570.322021,333.075195 
	C584.295166,340.641296 603.683167,331.343658 604.575745,316.515594 
	C605.129333,307.319031 600.711243,296.053986 586.609741,292.201843 
	C576.625183,289.474304 566.602783,293.111084 561.688782,301.864258 
	C556.043335,311.920105 557.939941,322.533813 567.424316,331.130554 
z"/>
<path fill="#e4d4c8" opacity="1.000000" stroke="none" 
	d="
M649.703491,759.482544 
	C647.574951,777.477417 638.683105,790.403381 622.203308,796.725037 
	C605.545593,803.114807 589.084167,801.419434 575.309753,789.402405 
	C561.744080,777.567261 557.608276,761.747864 561.423950,744.488098 
	C565.220032,727.317261 576.950012,716.423462 593.581909,712.259216 
	C622.497742,705.019409 652.762512,727.835754 649.703491,759.482544 
M593.804565,739.172607 
	C582.327209,745.985474 580.767334,763.954895 595.603455,771.790039 
	C603.500977,775.960999 611.517822,775.361877 618.415405,769.774231 
	C624.168274,765.113953 626.202942,758.986389 624.464844,751.911377 
	C621.170593,738.501587 606.668152,732.257507 593.804565,739.172607 
z"/>
<path fill="#e4d4c8" opacity="1.000000" stroke="none" 
	d="
M403.517822,858.452393 
	C418.963593,847.648621 435.056122,846.132507 451.389526,854.675720 
	C467.610352,863.160095 474.974976,877.366821 475.431030,895.516479 
	C475.874695,913.172241 468.303131,926.154846 452.681030,933.938843 
	C434.997803,942.749878 417.483582,941.517883 402.098480,929.015747 
	C388.235107,917.750183 382.834351,902.495422 386.796234,884.745178 
	C389.140656,874.241394 394.390228,865.241272 403.517822,858.452393 
M432.928040,914.552551 
	C434.207367,914.184265 435.498047,913.851196 436.764160,913.442017 
	C444.801727,910.844604 451.326416,902.709778 451.422852,895.191650 
	C451.528564,886.950012 444.736145,877.845764 436.418304,875.211182 
	C428.375885,872.663879 421.580200,875.139465 415.967773,880.949463 
	C410.242340,886.876648 408.723541,895.408569 412.207611,902.213623 
	C416.306549,910.219604 422.589935,915.111084 432.928040,914.552551 
z"/>
<path fill="#e4d4c8" opacity="1.000000" stroke="none" 
	d="
M469.375916,758.315063 
	C462.209686,766.213379 453.738220,772.278931 443.655182,773.237122 
	C414.082062,776.047363 391.283539,764.102112 389.446228,727.716309 
	C388.238281,703.793396 414.603210,680.859863 439.051025,685.364136 
	C452.822693,687.901550 464.907318,693.281616 472.579651,705.616211 
	C482.813202,722.068481 481.492371,742.609253 469.375916,758.315063 
M418.501343,741.922180 
	C421.478516,745.234558 425.187103,747.413086 429.410309,748.656982 
	C437.791565,751.125488 444.478851,747.856628 449.979950,741.874878 
	C455.304871,736.084778 455.562683,729.552612 452.220886,722.460815 
	C448.075073,713.662720 440.689758,711.019287 431.830414,710.946472 
	C423.814575,710.880554 418.813690,715.344055 415.889893,722.397644 
	C413.128174,729.060181 413.920624,735.420837 418.501343,741.922180 
z"/>
<path fill="#e4d4c8" opacity="1.000000" stroke="none" 
	d="
M539.022400,859.145020 
	C509.412689,876.175781 475.532593,860.307861 470.445038,827.058533 
	C467.693298,809.075134 478.705017,782.779724 506.574707,777.733948 
	C527.285156,773.984375 548.250427,785.199829 556.098877,805.318970 
	C564.165283,825.997131 556.869507,847.813171 539.022400,859.145020 
M533.656433,827.058533 
	C533.868958,825.915527 534.161621,824.780884 534.281372,823.628235 
	C535.426941,812.608582 528.442871,803.668762 517.126953,801.631042 
	C509.388031,800.237549 497.641083,808.137085 495.503998,816.172058 
	C492.872833,826.064636 499.342529,838.157715 508.821136,841.063965 
	C518.699280,844.092773 529.603760,838.228760 533.656433,827.058533 
z"/>
<path fill="#e4d4c8" opacity="1.000000" stroke="none" 
	d="
M627.895752,866.046997 
	C646.431885,883.598511 649.445923,906.880432 635.208923,926.090820 
	C624.615784,940.384277 610.110657,947.915039 592.197083,944.468323 
	C572.858765,940.747498 560.365417,928.878357 555.835388,909.152893 
	C551.277344,889.305420 562.429443,872.101013 573.365234,864.902893 
	C590.968872,853.316040 611.887573,853.924072 627.895752,866.046997 
M612.239075,913.736511 
	C614.479309,911.021301 616.041504,907.906860 617.676086,904.812561 
	C619.902161,900.598206 619.522400,896.655823 617.412964,892.506714 
	C613.724121,885.250671 605.026489,879.883362 598.037415,880.840576 
	C587.816406,882.240540 581.451172,888.270325 579.560364,898.344055 
	C578.302979,905.042664 582.535156,912.615356 589.833069,916.725098 
	C597.867676,921.249756 604.817322,920.475586 612.239075,913.736511 
z"/>
</svg>