<svg version="1.1" id="Layer_1" xmlns="http://www.w3.org/2000/svg" xmlns:xlink="http://www.w3.org/1999/xlink" x="0px" y="0px"
	 width="100%" viewBox="0 0 1135 682" enable-background="new 0 0 1135 682" xml:space="preserve">
<path fill="#E4D4C8" opacity="1.000000" stroke="none" 
	d="
M1136.000000,232.000000 
	C1136.000000,382.295380 1136.000000,532.590759 1136.000000,682.943054 
	C757.666687,682.943054 379.333344,682.943054 1.000000,682.943054 
	C1.000000,654.907898 1.000000,626.915222 1.419310,598.464233 
	C18.661367,600.729736 35.398533,603.052795 52.647415,602.266174 
	C69.833549,601.482544 86.697746,599.294128 103.306023,595.292114 
	C132.692093,588.211060 160.523315,576.731262 187.636627,563.582031 
	C203.950775,555.670105 219.998215,547.174744 235.909515,538.473450 
	C262.160431,524.117737 288.222107,509.415375 314.329041,494.797455 
	C332.841736,484.431732 351.664246,475.280914 373.433533,473.782440 
	C391.619965,472.530670 409.721710,471.290771 427.968689,472.970825 
	C446.612610,474.687500 465.304901,476.330353 484.007965,476.844604 
	C510.249359,477.566101 536.526306,477.257019 562.651245,474.003754 
	C578.423950,472.039642 594.342529,470.736847 609.898071,467.641876 
	C643.937500,460.869354 676.638367,450.108673 707.365295,433.460815 
	C735.068665,418.451050 759.709290,399.478302 782.446716,377.947327 
	C813.617188,348.430939 841.866638,315.900299 875.024292,288.416718 
	C903.054321,265.183319 934.393066,248.301056 969.353210,238.090744 
	C1000.331543,229.043350 1032.121216,225.859909 1064.198975,225.100601 
	C1076.311401,224.813904 1088.456787,225.534088 1100.575684,226.060135 
	C1106.018799,226.296432 1111.457397,227.021713 1116.854980,227.817657 
	C1122.915283,228.711319 1128.926636,229.935501 1135.088623,231.224075 
	C1135.415161,231.708969 1135.675903,231.898209 1136.000000,232.000000 
M928.770325,600.266174 
	C928.147522,593.884155 934.905151,594.341736 938.438965,590.197144 
	C927.632812,588.837280 928.577209,580.051941 926.476562,571.959473 
	C924.517334,580.252563 924.921570,588.674683 914.493591,591.195068 
	C925.422424,593.122070 924.277161,602.035706 926.568481,609.944824 
	C927.378418,606.181641 927.932251,603.608459 928.770325,600.266174 
M1013.841675,301.022278 
	C1013.185364,301.723633 1011.989502,302.400421 1011.956360,303.130096 
	C1011.623047,310.461334 1006.895874,313.630524 999.348206,315.620605 
	C1009.062866,317.003754 1011.855225,323.156036 1013.045105,331.131378 
	C1014.257019,323.602631 1016.446350,317.355621 1024.962036,315.498779 
	C1017.441162,313.596313 1014.403381,308.697235 1013.841675,301.022278 
M196.965057,645.496948 
	C197.402374,647.084717 197.839691,648.672424 198.697968,651.788574 
	C200.108368,643.276184 201.774673,636.598694 211.141754,636.030090 
	C207.292694,633.884766 203.463074,632.867798 201.563034,630.378174 
	C199.647690,627.868530 199.648392,623.896606 198.809601,620.565369 
	C197.239105,628.222168 194.686707,634.684082 184.382034,635.090210 
	C190.230453,637.517944 196.239868,637.832886 196.965057,645.496948 
M1008.517700,544.968811 
	C1008.736694,538.612915 1014.577026,538.252441 1018.891479,535.716492 
	C1011.306335,534.813538 1008.250000,530.068054 1006.913147,523.067993 
	C1006.179688,530.600586 1001.935913,534.390259 995.019836,536.255737 
	C1002.939575,537.074097 1005.621887,542.182922 1007.503723,548.405823 
	C1007.748352,547.492371 1007.992981,546.578918 1008.517700,544.968811 
z"/>
<path fill="#A47551" opacity="1.000000" stroke="none" 
	d="
M1136.000000,46.000004 
	C1136.000000,96.020897 1136.000000,146.041794 1135.758789,196.557068 
	C1135.517456,197.051468 1135.040894,197.143753 1134.690674,197.066650 
	C1122.711304,188.167969 1109.580566,184.004639 1095.003540,183.970703 
	C1078.244141,183.931686 1062.108276,187.556152 1046.276367,192.457413 
	C1014.155273,202.401520 983.705627,216.324234 954.228760,232.398834 
	C935.595520,242.560028 916.721558,252.349548 898.602417,263.369324 
	C858.548706,287.729340 818.913147,312.776398 779.089050,337.514374 
	C743.207031,359.803680 707.373535,382.172638 671.380310,404.281128 
	C647.135925,419.172943 621.539856,431.262115 594.508789,440.303131 
	C561.525085,451.335114 527.626099,457.700470 492.993256,459.843323 
	C478.638489,460.731476 464.177765,460.262390 449.775757,459.939697 
	C433.027252,459.564453 416.286804,458.748901 399.549591,457.979065 
	C388.132935,457.453918 376.733093,456.560364 365.316162,456.044403 
	C348.079224,455.265442 330.838531,454.357788 313.590607,454.103149 
	C300.645447,453.911957 287.680786,454.521423 274.735107,455.033997 
	C262.984039,455.499237 251.199295,455.860199 239.514420,457.080841 
	C221.123764,459.002014 202.768005,461.351807 184.462784,463.975739 
	C151.144760,468.751740 118.524216,476.887390 86.577934,487.213135 
	C57.746994,496.531921 29.502903,507.666321 1.000000,518.000000 
	C1.000000,442.979095 1.000000,367.958221 1.343522,292.328003 
	C2.940174,291.707947 4.262261,291.427826 5.435781,291.728149 
	C17.298561,294.764343 29.014360,298.526886 41.010002,300.857635 
	C60.939060,304.729797 80.970406,308.262329 101.096657,310.874878 
	C117.808083,313.044128 134.700363,314.059082 151.547028,314.855804 
	C161.297653,315.316925 171.134857,314.604553 180.900635,313.942108 
	C197.735611,312.800140 214.686172,312.224335 231.335526,309.726471 
	C263.611176,304.884308 295.260956,296.972412 326.137573,286.334961 
	C341.633148,280.996521 356.966492,275.101959 372.077911,268.755737 
	C389.503357,261.437683 406.759766,253.670197 423.795776,245.486221 
	C438.004639,238.660400 451.836914,231.040726 465.750824,223.613159 
	C487.853668,211.814102 509.937225,199.976852 531.934265,187.982071 
	C558.580872,173.451874 584.792664,158.083313 611.801941,144.269012 
	C648.450500,125.524605 685.032410,106.601654 723.310852,91.180092 
	C758.548584,76.983574 794.165588,63.963779 831.126221,55.150169 
	C853.121643,49.905140 875.408508,45.714565 897.729065,42.054203 
	C914.985962,39.224239 932.487122,37.842667 949.903442,36.046921 
	C956.656067,35.350674 963.470154,35.113018 970.262695,34.967457 
	C988.547180,34.575619 1006.852478,33.723824 1025.116821,34.231461 
	C1042.463013,34.713570 1059.775024,36.598122 1077.087280,38.042969 
	C1084.490967,38.660866 1091.874878,39.599892 1099.236450,40.618847 
	C1111.504272,42.316891 1123.746826,44.196720 1136.000000,46.000004 
z"/>
<path fill="#E4D4C8" opacity="1.000000" stroke="none" 
	d="
M1.000000,233.000000 
	C1.000000,155.692856 1.000000,78.385712 1.000000,1.000000 
	C336.360199,1.000000 671.720398,1.000000 1007.232300,1.274224 
	C1000.278564,2.051767 993.159485,2.411831 986.070312,3.085707 
	C966.123413,4.981767 946.188721,7.007126 926.249268,8.981202 
	C909.107544,10.678285 891.930481,12.081560 874.833008,14.145094 
	C852.809082,16.803221 830.816101,19.768082 808.870117,23.009417 
	C785.107544,26.519075 761.263062,29.745245 737.729492,34.466499 
	C708.943726,40.241428 680.331238,46.992935 651.852417,54.152264 
	C623.740356,61.219391 596.652832,71.399696 570.418091,83.794029 
	C538.783569,98.739471 512.163513,120.608871 486.459900,143.876480 
	C476.887909,152.541321 466.829315,160.791000 456.297729,168.248703 
	C431.937805,185.498672 404.198151,195.314880 375.660004,203.021103 
	C336.964783,213.470093 297.320709,218.483597 257.609344,222.872650 
	C237.855499,225.055939 218.014130,226.527084 198.184174,227.918839 
	C179.652466,229.219482 161.089523,230.124008 142.529221,230.954773 
	C123.780380,231.793976 105.020477,232.416245 86.260590,232.969482 
	C70.470322,233.435120 54.673580,233.894501 38.878822,233.927124 
	C26.253241,233.953217 13.626324,233.333221 1.000000,233.000000 
M108.336578,209.904297 
	C110.609016,208.824905 112.881454,207.745514 115.153893,206.666122 
	C107.331390,205.541260 105.548714,199.684677 104.185478,193.341949 
	C102.692970,196.493210 102.399940,200.012207 100.514732,202.078674 
	C98.492439,204.295425 94.973015,205.146362 92.219322,206.536606 
	C94.954704,207.864685 98.446983,208.607086 100.361229,210.755493 
	C102.307991,212.940399 102.699829,216.510757 103.960693,219.994171 
	C105.377625,216.311798 106.534134,213.306213 108.336578,209.904297 
M153.422256,172.907593 
	C159.279373,173.690292 161.483017,177.789795 162.510040,183.278717 
	C163.508224,177.944382 165.483231,173.736435 169.859970,173.129074 
	C167.140869,169.643295 164.420349,166.155701 161.986542,163.035675 
	C161.794418,167.731232 158.600082,171.168533 153.422256,172.907593 
z"/>
<path fill="#D0B49F" opacity="1.000000" stroke="none" 
	d="
M1.000000,233.468658 
	C13.626324,233.333221 26.253241,233.953217 38.878822,233.927124 
	C54.673580,233.894501 70.470322,233.435120 86.260590,232.969482 
	C105.020477,232.416245 123.780380,231.793976 142.529221,230.954773 
	C161.089523,230.124008 179.652466,229.219482 198.184174,227.918839 
	C218.014130,226.527084 237.855499,225.055939 257.609344,222.872650 
	C297.320709,218.483597 336.964783,213.470093 375.660004,203.021103 
	C404.198151,195.314880 431.937805,185.498672 456.297729,168.248703 
	C466.829315,160.791000 476.887909,152.541321 486.459900,143.876480 
	C512.163513,120.608871 538.783569,98.739471 570.418091,83.794029 
	C596.652832,71.399696 623.740356,61.219391 651.852417,54.152264 
	C680.331238,46.992935 708.943726,40.241428 737.729492,34.466499 
	C761.263062,29.745245 785.107544,26.519075 808.870117,23.009417 
	C830.816101,19.768082 852.809082,16.803221 874.833008,14.145094 
	C891.930481,12.081560 909.107544,10.678285 926.249268,8.981202 
	C946.188721,7.007126 966.123413,4.981767 986.070312,3.085707 
	C993.159485,2.411831 1000.278564,2.051767 1007.692017,1.274224 
	C1050.558472,1.000000 1093.117065,1.000000 1136.000000,1.000000 
	C1136.000000,15.685968 1136.000000,30.374325 1136.000000,45.531345 
	C1123.746826,44.196720 1111.504272,42.316891 1099.236450,40.618847 
	C1091.874878,39.599892 1084.490967,38.660866 1077.087280,38.042969 
	C1059.775024,36.598122 1042.463013,34.713570 1025.116821,34.231461 
	C1006.852478,33.723824 988.547180,34.575619 970.262695,34.967457 
	C963.470154,35.113018 956.656067,35.350674 949.903442,36.046921 
	C932.487122,37.842667 914.985962,39.224239 897.729065,42.054203 
	C875.408508,45.714565 853.121643,49.905140 831.126221,55.150169 
	C794.165588,63.963779 758.548584,76.983574 723.310852,91.180092 
	C685.032410,106.601654 648.450500,125.524605 611.801941,144.269012 
	C584.792664,158.083313 558.580872,173.451874 531.934265,187.982071 
	C509.937225,199.976852 487.853668,211.814102 465.750824,223.613159 
	C451.836914,231.040726 438.004639,238.660400 423.795776,245.486221 
	C406.759766,253.670197 389.503357,261.437683 372.077911,268.755737 
	C356.966492,275.101959 341.633148,280.996521 326.137573,286.334961 
	C295.260956,296.972412 263.611176,304.884308 231.335526,309.726471 
	C214.686172,312.224335 197.735611,312.800140 180.900635,313.942108 
	C171.134857,314.604553 161.297653,315.316925 151.547028,314.855804 
	C134.700363,314.059082 117.808083,313.044128 101.096657,310.874878 
	C80.970406,308.262329 60.939060,304.729797 41.010002,300.857635 
	C29.014360,298.526886 17.298561,294.764343 5.435781,291.728149 
	C4.262261,291.427826 2.940174,291.707947 1.343522,291.859314 
	C1.000000,272.645782 1.000000,253.291550 1.000000,233.468658 
M1100.199829,24.812021 
	C1098.468872,25.334501 1096.737915,25.856983 1096.177490,26.026138 
	C1098.592163,28.166697 1101.444092,30.694901 1103.513672,32.529530 
	C1105.422119,30.682232 1107.937012,28.247814 1109.687744,26.553154 
	C1107.835571,24.644232 1105.346436,22.078691 1103.102295,19.765768 
	C1102.550171,20.913321 1101.700195,22.680124 1100.199829,24.812021 
M1048.551758,23.253996 
	C1049.955200,24.728977 1051.358521,26.203957 1052.515991,27.420506 
	C1053.768921,25.971210 1055.375977,24.112284 1056.983276,22.252924 
	C1055.643921,21.272551 1054.096802,20.140182 1052.491333,18.965082 
	C1051.336060,19.808374 1050.258911,20.505239 1049.294556,21.333395 
	C1048.748413,21.802315 1048.387329,22.486614 1048.551758,23.253996 
z"/>
<path fill="#D0B49F" opacity="1.000000" stroke="none" 
	d="
M1.000000,518.468628 
	C29.502903,507.666321 57.746994,496.531921 86.577934,487.213135 
	C118.524216,476.887390 151.144760,468.751740 184.462784,463.975739 
	C202.768005,461.351807 221.123764,459.002014 239.514420,457.080841 
	C251.199295,455.860199 262.984039,455.499237 274.735107,455.033997 
	C287.680786,454.521423 300.645447,453.911957 313.590607,454.103149 
	C330.838531,454.357788 348.079224,455.265442 365.316162,456.044403 
	C376.733093,456.560364 388.132935,457.453918 399.549591,457.979065 
	C416.286804,458.748901 433.027252,459.564453 449.775757,459.939697 
	C464.177765,460.262390 478.638489,460.731476 492.993256,459.843323 
	C527.626099,457.700470 561.525085,451.335114 594.508789,440.303131 
	C621.539856,431.262115 647.135925,419.172943 671.380310,404.281128 
	C707.373535,382.172638 743.207031,359.803680 779.089050,337.514374 
	C818.913147,312.776398 858.548706,287.729340 898.602417,263.369324 
	C916.721558,252.349548 935.595520,242.560028 954.228760,232.398834 
	C983.705627,216.324234 1014.155273,202.401520 1046.276367,192.457413 
	C1062.108276,187.556152 1078.244141,183.931686 1095.003540,183.970703 
	C1109.580566,184.004639 1122.711304,188.167969 1134.816895,197.243149 
	C1135.493042,197.715042 1135.728516,197.882797 1136.000000,198.000000 
	C1136.000000,208.687561 1136.000000,219.375122 1135.739868,230.534088 
	C1135.306396,231.008942 1135.132935,231.012421 1134.959351,231.015884 
	C1128.926636,229.935501 1122.915283,228.711319 1116.854980,227.817657 
	C1111.457397,227.021713 1106.018799,226.296432 1100.575684,226.060135 
	C1088.456787,225.534088 1076.311401,224.813904 1064.198975,225.100601 
	C1032.121216,225.859909 1000.331543,229.043350 969.353210,238.090744 
	C934.393066,248.301056 903.054321,265.183319 875.024292,288.416718 
	C841.866638,315.900299 813.617188,348.430939 782.446716,377.947327 
	C759.709290,399.478302 735.068665,418.451050 707.365295,433.460815 
	C676.638367,450.108673 643.937500,460.869354 609.898071,467.641876 
	C594.342529,470.736847 578.423950,472.039642 562.651245,474.003754 
	C536.526306,477.257019 510.249359,477.566101 484.007965,476.844604 
	C465.304901,476.330353 446.612610,474.687500 427.968689,472.970825 
	C409.721710,471.290771 391.619965,472.530670 373.433533,473.782440 
	C351.664246,475.280914 332.841736,484.431732 314.329041,494.797455 
	C288.222107,509.415375 262.160431,524.117737 235.909515,538.473450 
	C219.998215,547.174744 203.950775,555.670105 187.636627,563.582031 
	C160.523315,576.731262 132.692093,588.211060 103.306023,595.292114 
	C86.697746,599.294128 69.833549,601.482544 52.647415,602.266174 
	C35.398533,603.052795 18.661367,600.729736 1.419310,598.002991 
	C1.000000,571.645752 1.000000,545.291565 1.000000,518.468628 
M165.045090,528.632568 
	C165.568207,529.314026 166.091324,529.995422 166.614456,530.676880 
	C167.064560,529.753052 167.514664,528.829285 167.989990,527.120422 
	C167.603455,520.408508 173.001633,518.936279 178.093826,516.739502 
	C169.752823,515.953857 167.913818,510.183960 166.477020,503.630188 
	C165.415863,510.524963 162.679993,515.763184 153.901199,516.701538 
	C164.456451,521.156677 164.456451,521.156677 165.045090,528.632568 
M80.474701,548.921936 
	C79.364883,546.120056 78.255074,543.318237 77.145256,540.516357 
	C76.224319,547.228149 72.470390,551.121643 65.579399,552.486267 
	C72.505745,553.808716 76.108009,557.983704 77.157051,565.046265 
	C77.684357,558.019836 81.347412,554.338440 88.513947,552.655457 
	C85.260422,551.240967 83.157570,550.326782 80.474701,548.921936 
M1068.221802,209.615219 
	C1070.177490,211.565613 1072.133179,213.515991 1073.458984,214.838303 
	C1075.299805,212.836319 1077.525757,210.415451 1079.185547,208.610397 
	C1077.234375,206.325974 1075.111084,203.839783 1073.759155,202.256989 
	C1071.561157,204.340347 1069.030396,206.739182 1066.674194,208.972427 
	C1066.691650,208.978073 1067.159180,209.129028 1068.221802,209.615219 
M960.479675,234.661591 
	C961.071716,234.934586 961.663757,235.207581 962.255798,235.480576 
	C962.394043,235.036163 962.532288,234.591751 962.670532,234.147324 
	C962.014709,234.136734 961.358887,234.126160 960.479675,234.661591 
z"/>
<path fill="#D0B49F" opacity="1.000000" stroke="none" 
	d="
M1136.000000,197.750000 
	C1135.728516,197.882797 1135.493042,197.715042 1135.167236,197.320251 
	C1135.040894,197.143753 1135.517456,197.051468 1135.758789,197.025726 
	C1136.000000,197.000000 1136.000000,197.500000 1136.000000,197.750000 
z"/>
<path fill="#D0B49F" opacity="1.000000" stroke="none" 
	d="
M1135.088623,231.224075 
	C1135.132935,231.012421 1135.306396,231.008942 1135.739868,231.002747 
	C1136.000000,231.000000 1136.000000,231.500000 1136.000000,231.750000 
	C1135.675903,231.898209 1135.415161,231.708969 1135.088623,231.224075 
z"/>
<path fill="#FFFFFF" opacity="1.000000" stroke="none" 
	d="
M928.628174,600.650757 
	C927.932251,603.608459 927.378418,606.181641 926.568481,609.944824 
	C924.277161,602.035706 925.422424,593.122070 914.493591,591.195068 
	C924.921570,588.674683 924.517334,580.252563 926.476562,571.959473 
	C928.577209,580.051941 927.632812,588.837280 938.438965,590.197144 
	C934.905151,594.341736 928.147522,593.884155 928.628174,600.650757 
z"/>
<path fill="#A47551" opacity="1.000000" stroke="none" 
	d="
M1013.908081,301.411407 
	C1014.403381,308.697235 1017.441162,313.596313 1024.962036,315.498779 
	C1016.446350,317.355621 1014.257019,323.602631 1013.045105,331.131378 
	C1011.855225,323.156036 1009.062866,317.003754 999.348206,315.620605 
	C1006.895874,313.630524 1011.623047,310.461334 1011.956360,303.130096 
	C1011.989502,302.400421 1013.185364,301.723633 1013.908081,301.411407 
z"/>
<path fill="#A47551" opacity="1.000000" stroke="none" 
	d="
M196.909393,645.108154 
	C196.239868,637.832886 190.230453,637.517944 184.382034,635.090210 
	C194.686707,634.684082 197.239105,628.222168 198.809601,620.565369 
	C199.648392,623.896606 199.647690,627.868530 201.563034,630.378174 
	C203.463074,632.867798 207.292694,633.884766 211.141754,636.030090 
	C201.774673,636.598694 200.108368,643.276184 198.697968,651.788574 
	C197.839691,648.672424 197.402374,647.084717 196.909393,645.108154 
z"/>
<path fill="#FFFFFF" opacity="1.000000" stroke="none" 
	d="
M1008.377686,545.317139 
	C1007.992981,546.578918 1007.748352,547.492371 1007.503723,548.405823 
	C1005.621887,542.182922 1002.939575,537.074097 995.019836,536.255737 
	C1001.935913,534.390259 1006.179688,530.600586 1006.913147,523.067993 
	C1008.250000,530.068054 1011.306335,534.813538 1018.891479,535.716492 
	C1014.577026,538.252441 1008.736694,538.612915 1008.377686,545.317139 
z"/>
<path fill="#FFFFFF" opacity="1.000000" stroke="none" 
	d="
M108.013611,210.102463 
	C106.534134,213.306213 105.377625,216.311798 103.960693,219.994171 
	C102.699829,216.510757 102.307991,212.940399 100.361229,210.755493 
	C98.446983,208.607086 94.954704,207.864685 92.219322,206.536606 
	C94.973015,205.146362 98.492439,204.295425 100.514732,202.078674 
	C102.399940,200.012207 102.692970,196.493210 104.185478,193.341949 
	C105.548714,199.684677 107.331390,205.541260 115.153893,206.666122 
	C112.881454,207.745514 110.609016,208.824905 108.013611,210.102463 
z"/>
<path fill="#FFFFFF" opacity="1.000000" stroke="none" 
	d="
M153.230453,172.680786 
	C158.600082,171.168533 161.794418,167.731232 161.986542,163.035675 
	C164.420349,166.155701 167.140869,169.643295 169.859970,173.129074 
	C165.483231,173.736435 163.508224,177.944382 162.510040,183.278717 
	C161.483017,177.789795 159.279373,173.690292 153.230453,172.680786 
z"/>
<path fill="#A47551" opacity="1.000000" stroke="none" 
	d="
M1100.524902,24.629475 
	C1101.700195,22.680124 1102.550171,20.913321 1103.102295,19.765768 
	C1105.346436,22.078691 1107.835571,24.644232 1109.687744,26.553154 
	C1107.937012,28.247814 1105.422119,30.682232 1103.513672,32.529530 
	C1101.444092,30.694901 1098.592163,28.166697 1096.177490,26.026138 
	C1096.737915,25.856983 1098.468872,25.334501 1100.524902,24.629475 
z"/>
<path fill="#A47551" opacity="1.000000" stroke="none" 
	d="
M1048.247314,23.163937 
	C1048.387329,22.486614 1048.748413,21.802315 1049.294556,21.333395 
	C1050.258911,20.505239 1051.336060,19.808374 1052.491333,18.965082 
	C1054.096802,20.140182 1055.643921,21.272551 1056.983276,22.252924 
	C1055.375977,24.112284 1053.768921,25.971210 1052.515991,27.420506 
	C1051.358521,26.203957 1049.955200,24.728977 1048.247314,23.163937 
z"/>
<path fill="#A47551" opacity="1.000000" stroke="none" 
	d="
M165.035141,527.905334 
	C164.456451,521.156677 164.456451,521.156677 153.901199,516.701538 
	C162.679993,515.763184 165.415863,510.524963 166.477020,503.630188 
	C167.913818,510.183960 169.752823,515.953857 178.093826,516.739502 
	C173.001633,518.936279 167.603455,520.408508 167.730667,527.627075 
	C166.659271,528.057617 165.847214,527.981506 165.035141,527.905334 
z"/>
<path fill="#A47551" opacity="1.000000" stroke="none" 
	d="
M80.764709,549.167236 
	C83.157570,550.326782 85.260422,551.240967 88.513947,552.655457 
	C81.347412,554.338440 77.684357,558.019836 77.157051,565.046265 
	C76.108009,557.983704 72.505745,553.808716 65.579399,552.486267 
	C72.470390,551.121643 76.224319,547.228149 77.145256,540.516357 
	C78.255074,543.318237 79.364883,546.120056 80.764709,549.167236 
z"/>
<path fill="#A47551" opacity="1.000000" stroke="none" 
	d="
M1067.924316,209.447601 
	C1067.159180,209.129028 1066.691650,208.978073 1066.674194,208.972427 
	C1069.030396,206.739182 1071.561157,204.340347 1073.759155,202.256989 
	C1075.111084,203.839783 1077.234375,206.325974 1079.185547,208.610397 
	C1077.525757,210.415451 1075.299805,212.836319 1073.458984,214.838303 
	C1072.133179,213.515991 1070.177490,211.565613 1067.924316,209.447601 
z"/>
<path fill="#D0B49F" opacity="1.000000" stroke="none" 
	d="
M960.591370,234.388580 
	C961.358887,234.126160 962.014709,234.136734 962.670532,234.147324 
	C962.532288,234.591751 962.394043,235.036163 962.255798,235.480576 
	C961.663757,235.207581 961.071716,234.934586 960.591370,234.388580 
z"/>
<path fill="#D0B49F" opacity="1.000000" stroke="none" 
	d="
M165.040115,528.268921 
	C165.847214,527.981506 166.659271,528.057617 167.718048,528.019653 
	C167.514664,528.829285 167.064560,529.753052 166.614456,530.676880 
	C166.091324,529.995422 165.568207,529.314026 165.040115,528.268921 
z"/>
</svg>